<svg xmlns="http://www.w3.org/2000/svg" width="344" height="405" fill="none">
    <path fill="rgba(255,255,255,.1)"
          d="M326 163c-2-5-7-5-11-5h-13l-18 1h-1c2-4 3-9 3-14a33 33 0 0 0-3-19v-2l-4-10-5-6-5-6c-4-3-8-5-13-6l-7-4c-3-2-6-4-10-3l-2 1-2-4-4-4-4-4-10-4-10-4c-6-3-11-6-17-7a51 51 0 0 0-17 2h-2l-4 1h-2l-6 2-2 1-2 1c-5 0-9 0-13-4-2-3-5-5-8-6-6-1-12 2-16 6-3 2-6 5-8 9l-2 10c0 4-4 6-8 8l-4 1-5 2-5 2-10 5c-3 2-7 5-8 8l-4 10-2 9-4 15c-1 3-2 7-1 11h-2l-7 4-9 8c-4 5-6 10-8 15-1 3-2 7 0 10l1 1 1 1c5 1 9 4 12 7 3 2 6 6 9 7l-2 7v6l2 12 2 13 2 6c3 4 8 3 12 3l7 1 4 2 4 4h-4c-5 0-9 1-13 4l-5 5-11 13c-4 3-9 7-11 12l1 2v4h1l8-2 7-1h8c5 1 10 3 16 3a29 29 0 0 0 13-4c-2 5-3 10-2 15l4 11 1 1 4-2 2-1c4-3 7-6 12-8l18-3 12-5 7-4c5-3 8-7 11-13l1-3 1-1 7 3 11 3c4 0 9-1 12-4 3-2 4-6 6-9a38 38 0 0 1 13-12v1c0 4 4 6 7 8 4 3 7 6 8 10l3 14 2 10 2 7c-1 2 0 5 1 5 2 0 2-1 3-2l3-4c6-6 12-12 15-20l2-12 3 2c4 2 9 1 13 3 2 0 4 2 6 4l3 2 2 1 2-1 1-3v-3c1-5 0-10-2-15-1-5-5-8-7-13l-5-8 1-1 3-7 5-11a31 31 0 0 1 9-10v-1l5-1c5-2 8-5 11-10 3-4 4-10 5-15v-7l1-3 4-9c3-5 7-10 5-15Zm-73-17 1 8v14c-1 5 0 9-2 13-2 7-6 13-10 19-2 4-6 7-10 9s-9 3-13 3l-10-1h-10l-8-3c-5-1-15-3-19-6 5-5 10-7 15-11l5-6 4-5c3-4 7-7 12-9h9l9-2c4-1 9-3 13-6 6-3 13-9 14-17Zm-1-23c2 6 2 13 1 19l-1-15v-4Zm-63 59c-4 3-8 5-13 6l-10-2-9-2-11-7c-5-2-11-2-15-5-7-5-7-15-11-22l-2-5v-1l3-1h6c9 0 15 1 22 8l8 6a182 182 0 0 0 26 3h12l13-7-3 9-8 10-8 10Zm2 2-1 2 1-2Zm58-34c-2 5-6 8-11 10-7 3-15 5-22 6-4 1-9 1-12 3a65 65 0 0 0 3-5l2-6 2-4 5-1 2-1c4-3 5-10 5-14v-5c2-4 5-7 8-9 3-4 6-9 11-12 2-1 3 3 4 4l2 5 2 10c1 6 2 13-1 19Zm-36 0c3-2 5-5 6-8v-1 5l-2 2c-1 2-3 1-4 2Zm28-41c-5 2-8 6-10 10l-8 10-3 7a11 11 0 0 0-4-8l-3-1-8-3 13-2 6-3c3-1 7-3 7-7v-6 1c-1-5 2-8 4-11h1c1 3 4 5 6 7 4 4 6 8 7 12-1-2-4-8-8-6ZM59 150l3-13 2-12c2-6 7-12 12-17 3-3 6-6 10-7l6-2 6-2 7-3 4-5c2-3 2-6 2-9 1-4 3-6 5-8l8-6c2-1 5-3 8-2l7 2 6 6 5 3-8 9-14 1c-4 0-8 2-11 4-4 1-7 4-11 6-6 3-10 8-14 14-1 2-3 5-3 8-1 5 2 7 6 6l7-4 5-6 7-7a65 65 0 0 1 15-9 4 4 0 0 1 4 1c2 2 1 5-1 8l-4 5-7 7c-5 3-11 5-15 9-8 5-13 11-16 20-2 6-3 14 1 19l4 5a9 9 0 0 0 9 0c4-1 8-4 12-2l11 8 7 5 19 10 11 8c1 2 1 3-1 5-7 7-19 7-29 3l-7-3-9-7-10-11-8-7c-4-2-7-2-11 0-2 0-3 1-4 3l1-4 2-6 2-3c1-4-2-5-5-6l-6-3c-6-2-9-2-16-2-5 0-5-6-4-9Zm77-56c-2 0 6-8 7-8l8 1 7 1c1 1 3 3 2 4l-4 2a2 2 0 0 1-1 0l-1-1-1-2c-4-1-7 0-10 1l-3 1-4 1Zm-2 2c-4-7-13-1-18 3l-5 6c-4 5-8 10-14 13l-5 2c-2 0-1-2-1-3l4-9 8-8 8-6 16-4 12-4c-2 3-6 6-5 10Zm-53 85-3-1-2-5-4-7c-2-3-4-4-7-5 7 1 17 1 23 5-3 3-4 7-5 11l-1 3-1-1Zm-47 2 5-8 4-5c3-4 7-6 11-9l4-3 2 6 7 4c5 2 5 6 6 10 1 5 4 8 8 9l-1 1c-1 3-2 5-5 6l-5 1-3 1-6 4v-1h-1c-4-4-10-7-16-8H32c-2-2 1-6 2-8Zm13 16-4-3 4 1 6 1 5 2 1 1-3 5h-1l-3-2-5-5Zm23 54c-4 1-7 2-10-1l-2-9-3-21v-9l2-6 5-4 10-5 6-2 3-5a78 78 0 0 0 1-1 20 20 0 0 0 4 16c3 4 7 7 12 10l12 7 17 17c4 4 9 6 15 7l11-1 15-4c5-2 9-6 13-9l8-4 7-3 3-3a6 6 0 0 0-2-6c-1-2-3-2-4-2a162 162 0 0 0-15-5l-2 2 1 3 7 1c3 1 10 2 12 5 0 2-3 3-5 4l-14 7-14 8c-8 3-13 2-21 1l-8-2c-10-3-15-14-23-19l-9-6-10-6c-3-3-7-7-8-12 0-4 1-10 4-13 4-4 8-1 11 1l15 14c5 5 10 10 16 12 4 2 8 4 12 4 5 1 11 0 16-2 4-2 9-4 10-8a7 7 0 0 0-2-6l-5-5-13-8-10-4-8-5c-5-5-8-12-16-11-5 0-9 5-15 4-3-1-5-4-6-7-3-4-3-10-1-14l6-11 9-7 12-8 11-7c4-4 7-12 5-18 2 2 9 0 12-1h5l2 1c2 1 5 0 7-2s2-7-1-9c-4-3-9-3-14-3l6-4c3-2 7-6 11-7a49 49 0 0 1 9-3l10-2 11 1 14 4 9 5c6 3 12 5 16 10 3 4 3 5 1 9l-3 9-7-7-11-5c-3-2-7-2-10-3l-6-3c-3-2-5-4-8-4-7-1-13 1-19 3-3 2-5 5-6 8l2 7-2 1-8-1-6-2c-6 0-12 4-12 10-1 5 1 10 2 14l7 14c5 8 14 8 22 8 5-1 10-1 14-3 3-1 6-2 7-5l4-8 1-3c3-1 8-3 9-7 0-5-2-11-6-13l-5-2c-2-1-4 0-5-2l-1-2-6-3c-4-1-10 0-14 2 0-3-1-5 1-8s7-4 10-4h5l9 2 6 2 7 3c7 2 14 4 20 9 2 1 3 3 4 6v3c-2 4-6 5-9 6l-10 2c-2 0-6 0-8 2l1 4 11 5c3 2 5 5 4 9s-4 7-8 9l-8 3c-9 4-11 6-22 5-6-1-12 0-18-2-4-1-7-4-10-6-10-8-19-14-31-10-3 0-5 2-4 4l1 5 4 16c4 9 10 10 18 13l17 10c8 4 15 7 24 4l-6 5-4 4c-1 2 0 5 3 6 2 2 5 2 7 3l10 4c6 2 12 2 18 2l10 2c10 0 19-7 26-13a38 38 0 0 0 10-19l1-14 2-9-1-10v-15c-1-7 0-14-3-20 0-3-2-5-3-8l-7-7-5-8c-1-2 1-3 2-2l8 4 11 5c5 2 9 4 11 7l8 12c2 3 3 6 3 10 1 6-2 17-6 22-3 3-17 9-17 13 0 1 1 4 3 2l9-6 7-7c3-3 4-6 5-9l2-9v4a36 36 0 0 1-2 14l-3 7c-5 3-8 7-11 11a62 62 0 0 0-8 17l-1 14c-1 3-1 7-3 10-1 4-4 7-7 10l-9 6-9 7-8 5c-4 2-8 3-13 3h-13l-8-1-9-1a19 19 0 0 0-7 1l-8 1-4 1-13 5-13 7-8 5c-7 5-12 3-19 0l-13-5-10-3-15-1Zm89-134c1 4 2 9 6 11l7 2c7 1 12 1 19-3-2 4-5 8-10 10l-14 3c-5 0-10-1-14-4-5-3-8-8-11-13-2-4-3-9-3-13 0-3 2-5 4-6 8-5 10-2 18-1-3 4-3 9-2 14Zm18 11-9-2-1-2-2-6c0-2-1-6 1-7l2-1h1l2 3c1 2 4 2 7 2l8 1 5 4v2c-4 3-10 5-14 6Zm11-14-10-2c-4-1-5-3-7-6-5-4-9 3-9 7l1 4 1 5-2-5v-9l3-5 1-1c2-3 5-4 8-5 4 0 8 0 10 3l2 5c3 2 7 1 10 2 3 2 4 6 4 9l-5 4c-1-3-3-5-7-6Zm70 142Zm-81-12a1 1 0 0 0 1-1h1c3-1 6 1 8 2l9 9 10 5-10 6-11 5-14 2-13-3-10 2h-1l4-4 9-6 10-10 5-6 2-1Zm37 13c-6 0-11 0-15-4l-10-10 5 1 12 2 6-1 7-2 5-2c6-3 12-5 17-9a96 96 0 0 0 13-12l-1 3-4 13c-2 7-7 12-12 16l-8 4-7 1h-8Zm32-10 1-2 7-17 3-7 1-1 3-2a13 13 0 0 1 6-2 24 24 0 0 1 11 3l3 1 1 1-2 1c-3 1-6 4-7 7l-3 5c-2 4-6 7-10 9l-11 3-3 1Zm-163 8 12 4c7 3 13 6 20 6l11-1 14-8 9-6 14-4 3-1 6-2 2-1h1l-8 8-6 5-9 7-10 7-14 4-13-2-15-3c-4-2-8-3-11-6l-6-7Zm-21 22 5-7c3-5 7-6 13-7l4-1h3l7 6-5 2-8 3-10 4-10 5-14 11c4-6 10-11 15-16Zm34 17-6 3H80l-14-2-14-1-4 1 2-1a156 156 0 0 1 32-17l7-2 4-1c4-1 8-2 12-1l7 2h1c-5 3-9 8-12 13l-3 5-2 1Zm2 23-2-9c0-7 4-12 8-17 2-4 9-15 12-15l8 1 9 1c-9 9-20 16-28 27-3 3-6 7-7 12Zm65-32c-3 7-11 12-17 16l-16 4-15 6-10 5-5 3 4-9 3-5 6-5 9-6 11-11 4-4 2-2 4 3c4 2 8 1 13 1a27 27 0 0 1 8 2l-1 2Zm37-10-5 7-6 3-6 2c-6 0-10-4-14-7l-8-2h-8l-7-1-7-1 11-2 10-1 7 1 8 1 15-2 9-6c5-3 11-5 17-5-6 4-12 7-16 13Zm39 36c-1-5-3-10-3-16-1-10-4-16-13-23l-5-4c-1-1-2-2-1-4a8 8 0 0 0 1 0l1-2v-1c4 0 9-1 13-3l3-1 1 4 6 10c3 5 4 10 4 16 0 4 0 7-2 11l-2 7-3 6Zm19-29-4 15c-2 4-4 7-7 9l-4 3 2-7c2-8 5-15 4-23-1-5-4-10-7-15l-4-6c4-5 9-4 14-2 5 1 6 4 7 8 1 6 0 12-1 18Zm30 7-5-4a39 39 0 0 0-18-4l-4-1c2-6 3-12 1-17l-1-1 4 3 8 7 7 7c2 2 9 8 8 10Zm-2-18c2 4 3 9 3 14l-3-3-6-8-4-4-8-7-4-3-2-2 5-1 7-4 2 4 10 14Zm-2-40-3 9-7 8c-4 2-8 5-13 5l-6-2-4-1c6-2 11-3 16-6 3-2 6-6 7-10l1-5c3-5 9-6 13-6l-4 8Zm40-66-7 12-4 12c-2 5-5 10-9 12-7 3-15 4-22 2l-11-2-2 1c-2 0-2 2-2 3 1 1 1 3 3 2h28a19 19 0 0 0 15-9l-4 9c-1 3-3 6-6 8-2 2-5 3-9 3h-4l-6-1-12-3-7-1a17 17 0 0 0-8 3c3-5 4-11 4-17l4-18c1-5 5-9 9-12l6-4 10-4c4-2 8-2 13-2l15 1 4 1 2 1v3Z"/>
    <path fill="rgba(255,255,255,.1)"
          d="M241 187a1 1 0 0 0-1 1l-1 2-9 9c-6 4-12 1-18 1h-8l-4 1c-2 0-4 1-5 3v2l1-1c0-2 1-2 2-2l4-1 6 1a47 47 0 0 0 21-1c6-2 9-6 12-10 1-2 2-3 1-4a1 1 0 0 0-1-1Z"/>
    <path fill="rgba(255,255,255,.1)"
          d="M220 198v1-1l2-1 3-1a30 30 0 0 0 11-9l-1-2a1 1 0 0 0-1 0l-5 7-6 3-3 2v1ZM82 224l2 4 3 6c4 6 10 10 16 13l1-2-6-3-6-5-6-8-3-6-4-6c0-1-1-3-3-3l-1 1h1l2 1 4 8Z"/>
    <path fill="rgba(255,255,255,.1)"
          d="m93 233 3 3 7 4c1 1 2-3 0-3l-8-4-3-2-1-1v-1h-1l1 1 2 3Zm204-49a1 1 0 0 0-1 0l-2 3c-2 2-5 4-9 5l-7 3-4 1a4 4 0 0 0-2 3v1h1a1 1 0 0 1 0-1l1-1c2-2 4-2 6-2 5 0 10-1 14-5l3-3 1-2-1-2Zm-20 8v-1l2-2 8-3 5-4v-2a1 1 0 0 0-1-1 1 1 0 0 0-1 0l-1 2-5 4-3 1c-1 1-4 1-4 3v3ZM82 147l1 2c0 1 0 1 0 0v-6l1-4 3-9-1-2a1 1 0 0 0 0 1l-3 5-1 10v3Zm-5-1v-2l3-8 2-3-1-3a1 1 0 0 0-1 0l-2 5c-1 4-2 6-1 11Zm183-20 1 6v6c0 1-1 3 1 4l1-3-1-8-1-7c0-3-2-5-3-7v-1 1l2 9Zm5 3v12l1-1v-14l-1-3h-1l1 1v5Z"/>
</svg>