<svg xmlns="http://www.w3.org/2000/svg" width="294" height="413" fill="none"><path fill="rgba(255,255,255,.1)" d="M68.8 9.2a90.3 90.3 0 0 0-25.5 49.2 40.4 40.4 0 0 0 13.1 39.2c20 18.8 58.1 25.6 113 20.3l8-.8v11.7c0 16.4 1.8 19.5 27.4 44.5 28.3 27.9 36.8 41.2 42.1 66a82.6 82.6 0 0 1-2.2 39.5c-7.9 23.5-30.3 49.2-64.7 73.9a60.1 60.1 0 0 0-10.7 8.6c0 1.5-13 17.4-14.2 17.4-2.7 0-.6-3.5 6.1-10.2 4-4 6.8-7.2 6.3-7.2a51.5 51.5 0 0 0-14.8 17.2c0 1.6.5 2.8 1.2 2.8.5 0 5.4-4.9 10.9-10.9 6.8-7.6 10-10.3 10.3-8.7.9 4.8-15.2 23-29.9 33.4a81.8 81.8 0 0 1-36.1 15.3c-10.7.7-14-.1-19.8-5.3-21.8-19.1-9.8-63.1 31.2-114 21.2-26.4 33.8-37.4 50.6-44.6l8.5-3.6 4.5 3.1c7.4 5 20.8 5.7 33.6 1.7 10.8-3.3-.5-7-21.4-7-21.4 0-21.2 1-3.8-33.1a318.8 318.8 0 0 0 13.2-27c-.2-.2-4.6 5-9.7 11.8-12.1 15.7-30.1 33.7-40 39.6-6.7 4-9 4.7-16 4.7-6.8 0-9.9-1-18.5-5.2A72.9 72.9 0 0 1 91.2 203l-3.5-6.7-2.4 7c-2.5 7.8-10.5 19.7-31.3 46.9-27.6 36.2-45 65.7-50 85-2.5 9.9-4 28-2.8 34.6 1.3 6.6 8.7 14.5 17 18 5.8 2.6 7.5 2.8 13.3 1.6C43 386.9 60 377 73.6 364.8l7-6.3-1.5 5.1c-.8 2.8-1.5 9.6-1.5 15-.1 16 7.5 29.3 19 32.7 14.3 4.4 38.9-5.3 61.3-24.4 10.2-8.8 19.2-21.2 18.5-25.8-.5-3.2.7-4.6 11.2-12.4 15.3-11.5 34-29.4 42.4-40.6 22.8-30.4 26-60 9.9-92.9-7.2-14.7-18-28-39.4-48.3a147.2 147.2 0 0 1-18.6-20.4c-3.2-6.4-4.6-15-3.4-23l1-6.2 15.6-.2 15.6-.3-15.1-.4c-11.2-.4-15-1-14.5-2.1.2-1 2.5-7.6 4.9-15l4.4-13.3 2.8 4 11.2 15c4.5 6 8 11.7 7.6 12.3-.5.8-.1 1.4.8 1.4.8 0 8.3 6.4 16.4 14.2 17.5 17.1 30 26.7 42.7 33.1 15.2 7.7 23.4 5.3 21.6-6.1-3.5-21.4-26.8-35.8-67-41.4l-11.3-1.6-6.4-8.1c-3.5-4.5-9-11.9-12-16.4l-5.5-8.3 2.7-9.7c3.2-11.6 3.3-14.8.7-17-1.8-1.5-2.7-1.3-5.4 1.3-1.7 1.7-3.8 5-4.8 7.6-1.2 4-1 5.4 1.9 11.2l3.3 6.6-5.2 15-5.4 15.8c-.3.6-10.7 1.6-23.2 2.6-56.7 4-95.8-8-108-33.1-3.2-6.4-3.8-9-3.6-18.3.2-19.8 8.1-37.2 25.6-55.7A64 64 0 0 0 78.7 0c-.6 0-5.1 4.1-9.9 9.2Zm126.1 50.3c1 2.6-3.3 21.8-4.9 21.8-.7 0-2.1-2.5-3.3-5.7-2.3-6.1-1.5-11 2.9-15.9 2.7-2.9 4.3-3 5.3-.2Zm49.6 64c13.6 3.4 27.5 9.3 34.6 14.8 9.2 6.9 15.7 22 12.2 28.2-4.4 8.6-26.1-2.5-54-27.3-6.1-5.5-13-12.3-15.3-15.2l-4.3-5.5 7.1 1c4 .5 12.8 2.2 19.7 4Zm-50.2 78.1c-16.6 30.8-16.6 30.8-15.8 36 .7 3.9.4 5-1 5-4.2 0-23.4 11-30.7 17.7a331 331 0 0 0-42.1 49.8C96 322.7 82 349.1 82 352.8c0 2.4-17.5 18.4-25.9 23.9-19.3 12.4-30.9 14.5-41.7 7.8C5.4 379.1 2 372.4 2 361c0-31.6 14.1-59.3 63.7-124A244 244 0 0 0 84 210.1l4.5-8.9 3.5 6c4.8 8.3 19.2 21 29.4 26 20.3 10 32 6.4 55.4-17a233 233 0 0 0 23.6-26.9c.4 0-2.4 5.6-6 12.3Zm18.4 41.2c7.8 1.7 8.5 3.3 1.7 4.8-9.6 1.9-23.7 1.2-27.9-1.6-3.4-2.3-3.6-2.5-1.2-3.5a82 82 0 0 1 27.4.3Z"/><path fill="rgba(255,255,255,.1)" d="M116.8 194c-.1 2.3-.4 2.4-1.5.7-.6-1.1-1.3-1.5-1.3-.7 0 2.1 2.4 5.3 3.3 4.4.6-.4.7-2.3.3-4-.5-2.5-.7-2.7-.8-.4Z"/></svg>