<svg xmlns="http://www.w3.org/2000/svg" width="903" height="1266" fill="none"><g fill="#fff" fill-opacity=".1" clip-path="url(#a)"><path d="M468 872ZM423 189ZM502 545ZM284 627a265 265 0 0 1 28 11l5 2 3 2 4 2 2 2 2 2a43 43 0 0 1 4 4l8 10 10 10 9 9 5 5 5 4a213 213 0 0 0 27 20l5 4a137 137 0 0 0 17 12l5 2 4 3h1l2 2 1 1 2 1a105 105 0 0 1 3 3h1a4 4 0 0 0 1 0 3 3 0 0 0 1 0 5 5 0 0 0 0-4l-2-3-2-3-2-2-4-6-6-7-6-9a126 126 0 0 0-20-22l-16-13-9-9-5-5-2-2-2-2-2-3-1-2-3-5-3-4-6-10a160 160 0 0 0-15-21l-4-4-4-5a85 85 0 0 0-22-15l-12-6-11-5-6-3-5-2-3-2a63 63 0 0 1-8-6l1 1-2-2-2-1-3-4-6-6a220 220 0 0 0-12-12l-3-4-3-4-7-12-3-5-4-5-8-9-5-5-1-1-1-1-2-2c-4-2-7-5-11-6l-6-3-6-3a61 61 0 0 0-5-2h-6l-4 1-2 1-1 2v2l1 3 4 5 4 4 4 4 3 4 4 5 8 14 4 7a114 114 0 0 1 12 26l2 6 3 5 4 10 5 10 1 2 2 2 1 2 2 2 2 2 2 2 3 3 8 7a7753 7753 0 0 1 17 13l3 2a1199 1199 0 0 0 16 6l7 2 6 1Zm-23-15a127 127 0 0 1-14-6l-4-2-2-1-1-1-4-2-1-2-1-1-3-3-3-3a181 181 0 0 1-13-20l-4-7-1-3-3-6-3-6a406 406 0 0 1-10-24l-5-12a119 119 0 0 0-6-12l-8-9a289 289 0 0 0-14-13l4 1a97 97 0 0 0 13 2h4l1 1 2 1 3 2v-1l4 3 3 2 6 6 3 2 2 3 6 7 5 7 6 8 5 7 6 11 8 10 2 2a56 56 0 0 0 7 6l4 3 5 3 10 6 11 6 10 5a144 144 0 0 1 17 8 571 571 0 0 0 16 14l3 2 2 3 3 4 4 6 9 13 4 6 3 6a34 34 0 0 0 5 6l4 5 10 11 4 6 5 5a103 103 0 0 0 11 10l11 8 4 4 4 3a121 121 0 0 1 22 30 78 78 0 0 1-5-5l-2-1-7-6-15-9h-1a96 96 0 0 1-6-4l-2-1a99 99 0 0 1-7-7l-8-8-3-3-3-3-8-6-3-2-2-3-5-4a532 532 0 0 0-18-19l-10-9-10-8-3-2-3-2-3-2h-1l-2-1-4-1-3-1-3-1-3-1-6-2-5-1-20-8ZM435 738ZM439 738ZM436 738Z"/><path d="M728 669a2 2 0 0 0-2 0l-1 1-3 3a195 195 0 0 0-15 13l-8 7-7 8a605 605 0 0 0-16 16l-2 2-2 1-4 3-4 3-2 1-2 1-7 6-3 3-4 3-8 6-2 1-2 2-4 2-11 4-5 2-3 1-2 1-3 2-3 2-5 3-3 1-3 2-5 2a466 466 0 0 0-8 3l-2 2-6 2-10 6-3 2-2 2-5 4a359 359 0 0 1-10 9l-3 2-2 2-3 2-2 2-2 3-2 2-4 5-4 6-2 2-2 3-1 3-2 3-2 6a306 306 0 0 1-7 13l-1 3-1 4-2 8-1 2v1l-1 4v4l-1 4v2l-1 2a690 690 0 0 1-1 7l-1 6a64 64 0 0 0-1 12v2-1 20l-1 4-1 5-1 5v1l-1-7a339 339 0 0 1-3-17l-2-8-1-3v-2l-1-4-2-5-2-5-4-14-5-13v1-1l-6-17-3-9-1-6v-7l1-2a70 70 0 0 0 0-1 182 182 0 0 1 8-34l3-8 5-14 6-9 1-1 13-17 6-8 6-9 5-10a143 143 0 0 0 9-19l2-4 4-7v-2l1-2 2-4a65 65 0 0 0 3-14v-9l-2-14-1-7a277 277 0 0 1-3-18 84 84 0 0 1 1-13l1-4a136 136 0 0 1 7-17 3 3 0 0 0 2-1 16 16 0 0 0 1-1 34 34 0 0 1 10-6h1a125 125 0 0 0 6-2l3-1v1l3 2v4l1 10 1 8a47 47 0 0 0 5 16l1 3 3 2 4 2a11 11 0 0 0 4 0h4l4-2 5-2 4-2 11-5a252 252 0 0 1 11 10l6 8 6 6a178 178 0 0 0 18 17 17 17 0 0 0 9 2h2l4-1 3-2 3-2 6-6 2-3 3-3 1-3 2-1a419 419 0 0 0 5-12l4-8 1-2 1-2 1-3 1-5 1-4 2-8v1l1-8 2-9 3-15v-13l-2-5h1a374 374 0 0 1 7-6l3-7 1-7c-1-2-1-5-3-7l-4-6-5-7a25 25 0 0 0-3-3l-1-2-3-3-8-5a120 120 0 0 0-20-11l-1-1h-4l-2-1a27 27 0 0 0-3 1l-5-5-18-15-8-6a86 86 0 0 0-9-7 22 22 0 0 0-11-2l-7 1-17 2-15 1-4 1-3 1a4 4 0 0 0-3 1 11 11 0 0 0-1 5l-1 4 1 8 1 15 1 9a167 167 0 0 1 0 15 78 78 0 0 1-7 25l-2 8a83 83 0 0 1-4-11l-5-15a63 63 0 0 0-11-21 53 53 0 0 0-11-9 28 28 0 0 0-13-4h-2a72 72 0 0 0-18 4 58 58 0 0 0-6-17l-4-6a2 2 0 0 0-1 0 2 2 0 0 0-2 1v1l-1-1a3 3 0 0 0-2-1l-2 2-1 3-1 3a120 120 0 0 1-7 15l-2 4-2 4-1 3-1 2a230 230 0 0 1-8 15l-3 5-2 3-2 3-3 5-4 6-1 2-1 3-3 6-2 3-1 3-1 2-1 1-1 3v2l-1 2a81 81 0 0 0-2 13v5a49 49 0 0 0-4 13l1 2v1h1l1-1 2-2h1v-1l1-1v-1h1l4-6 3-3a66 66 0 0 1 7-6l2-1 2-2 5-3a95 95 0 0 0 12-10l1-1 2-2 5-5 6-6a172 172 0 0 0 10-10l3-6a53 53 0 0 0 4-14v-11l1 1a67 67 0 0 1 7 16l1 5a162 162 0 0 1 3 17l1 6a77 77 0 0 0 4 17 38 38 0 0 0 7 11l4 2a18 18 0 0 0 6 1 28 28 0 0 0 7 0l4-2-1 3 1 7-5 5-4 6-4 8a49 49 0 0 0-1 17v6a60 60 0 0 0 4 16l1 8 1 16a77 77 0 0 1-3 21l-6 13-7 12-3 5a157 157 0 0 1-8 12l-5 6a122 122 0 0 0-22 36l-2 5-3 8-5 11a101 101 0 0 0-7 26l-1 2-1-7a378 378 0 0 1-2-21v-35a492 492 0 0 1 0-35v1-33a215 215 0 0 0-2-28l-3-17a119 119 0 0 0-5-17l-2-4-2-3-4-6-8-12a19 19 0 0 1-1-2v2h1-1l-5-7-5-8-13-20-3-5-1-2-1-2-1-2a190 190 0 0 0-2-6l-1-4a129 129 0 0 1-2-15v-4a221 221 0 0 1 3-20l1-6a230 230 0 0 1 9-21l7-16a228 228 0 0 1 22-36l9-15 3-5 2-2 2-7a152 152 0 0 0 8-21v-11a85 85 0 0 0-2-12 175 175 0 0 0-14-32v-3a18 18 0 0 1 0-2h1a56 56 0 0 1 8-1l2-1h3a123 123 0 0 0 4 1l10 8a71 71 0 0 0 25 15l8 4 5 3 4 2 6 4 5 3 17 9 10 5 9 5 7 3 6 2 10 3 18 6 10 2 4 1 3 1 6 2 3 1 3 1h2l5 1a23 23 0 0 0 10-3l1-1 2-2 6-6a94 94 0 0 0 11-18l2-5 2-5 2-6 1-5 1-4 1-3v-7a31 31 0 0 0-2-12l-5-11-2-6-2-4a81 81 0 0 0-4-8l-4-6a200 200 0 0 1-8-17l-3-7-6-12-2-6h1l2-1a359 359 0 0 0 17-5l6-1 5-1a391 391 0 0 1 21-4l6-1 7-4a30 30 0 0 0 5-9l2-6a26 26 0 0 0-1-6l-1-5-2-6-4-10-2-5-3-6-6-11-4-6-1-4-3-6a115 115 0 0 1-6-14l-3-9-7-15-7-11-2-5a258 258 0 0 1-6-12l-3-7a108 108 0 0 0-7-13l-4-5-2-4a825 825 0 0 0-13-15 96 96 0 0 0-16-12l-10-4-10-2a853 853 0 0 0-24-3l-7-1h-7l-12-1h-15l-10 1-6-4a222 222 0 0 0-9-5h-2l-3-1-9-3-11-2-10-2-4-1h-2l-3-1h-7a143 143 0 0 0-23 2l-4 1a109 109 0 0 0-11 3l-22 5-11 3-9 3-10 3a304 304 0 0 1-28 9l-16 7-10 4-7 3-3 2-3 2-2 4v2a199 199 0 0 1-12 3l-8 1a32 32 0 0 0-7 3l-2 1-5 3-4 3a80 80 0 0 0-13 16l-2 4-2 8-3 10-2 4-3 6a301 301 0 0 0-9 24l-5 10-7 14-3 5a443 443 0 0 1-14 30 913 913 0 0 1-11 25l-1 5a58 58 0 0 0-1 16 2470 2470 0 0 1 5 12l2 4a62 62 0 0 0 11 10l2 1 3 1 9 5-1 3a78 78 0 0 0-1 13l-1 4v3a276 276 0 0 1-1 17v30l-1 7v21a69 69 0 0 0 2 15 17 17 0 0 0 4 7l3 2 4 2 4 2a38 38 0 0 0 19 3 350 350 0 0 0 19-3l5-1a296 296 0 0 1 10 0l4-1h3a46 46 0 0 0 6-1 201 201 0 0 1 7-2l2-1h6l5-1h2l3-1a335 335 0 0 0 17-5l3-1a256 256 0 0 0 5-1l2-1 5-2a173 173 0 0 0 9-5l5-2 8-5 8-6a259 259 0 0 0 15-11l8-8a249 249 0 0 1 19-16l7-8 5-6 2 1a29 29 0 0 1 5 5l3 2 1 1 5 10 6 8a114 114 0 0 1 5 13l2 3v2a101 101 0 0 1 1 13 99 99 0 0 1-1 10v3l-2 4-2 4-3 6-3 5-1 2-5 8-5 7-4 7-5 9-9 15-4 8-4 6a136 136 0 0 0-6 15l-10 28a149 149 0 0 0-2 14l-1 5v5c0 8 3 15 5 22l3 7 2 5a94 94 0 0 0 15 22l9 9 3 4a146 146 0 0 1 7 10l2 6 5 10 4 11 2 9 2 5 1 4a128 128 0 0 1 3 28v10a255 255 0 0 1 0 21l-1 12v57a434 434 0 0 0 7 48l2 9 3 10 3 10 3 9 5 17 6 18 2 5 1 2 1 2h1v2l2 11 2 5 1 4v3a839 839 0 0 1 1 17v8a113 113 0 0 1-3 15l-1 3-2 6a253 253 0 0 1-7 15l-9 20-4 7-2 4a3966 3966 0 0 0-5 9l-1 3-1 2-2 8-2 7a1044 1044 0 0 1-7 27l-4 11-2 8a124 124 0 0 0-3 15v5a1156 1156 0 0 0 1 29 250 250 0 0 0 4 25l6 18 4 12 7 23a68 68 0 0 1 1 14l1 6 1 4 1 1h1a3 3 0 0 0 2-2l1-3a84 84 0 0 0-3-22l-4-13-9-27-6-18a460 460 0 0 1-3-12l-1-3v-4l-1-3v-12a126 126 0 0 1 2-10l1-9a994 994 0 0 1 8-38l5-17 3-7 2-7 4-12 2-5 1-4 2-4a514 514 0 0 1 22-44 98 98 0 0 0 3-12l1-4a99 99 0 0 0 0-12v-5l1-4a50 50 0 0 0 0-3 26 26 0 0 1 1-5l1-3v1-1l1-1v-2l1-3 2-12v-10a91 91 0 0 0 1-12 150 150 0 0 1 3-25 131 131 0 0 1 11-29l3-6v-1l2-3a57 57 0 0 1 3-6l2-2a85 85 0 0 0 3-6l3-6 4-4 10-11 1-1 5-3 3-3 3-2a244 244 0 0 0 11-6l5-4 2-1 3-1 2-2 3-1 6-3 5-3a134 134 0 0 1 12-4l3-1 3-1 3-1a429 429 0 0 1 13-8l11-6 5-3 5-3 6-3 4-3 3-2a44 44 0 0 0 6-5l5-5 3-4 7-6 7-6a283 283 0 0 0 13-13l13-13a296 296 0 0 1 9-8l-1 5a56 56 0 0 0-5 12 152 152 0 0 1-5 15l-2 3-2 4-5 7-1 3-2 2-3 3-2 2-3 3-4 4-6 5-2 2-2 2-11 7-10 7-5 3-5 3-5 3a120 120 0 0 1-14 5l-6 2-6 2-11 4-11 4-12 5-23 9a63 63 0 0 0-16 12l-4 5a256 256 0 0 0-28 41 224 224 0 0 0-10 29v5l1 1a2 2 0 0 0 2 0h1v-2l2-1a139 139 0 0 1 9-9v-1l9-9 5-5 3-3 3-3a107 107 0 0 1 18-9l9-4a225 225 0 0 0 18-9l9-4 4-1 2-1 2-1 9-2 6-2 3-1 3-1 12-5 6-3 5-2a138 138 0 0 0 21-14l10-9a774 774 0 0 0 33-37 129 129 0 0 0 9-16l2-5a72 72 0 0 0 4-12l2-13 1-10 2-11a47 47 0 0 1 3-10 7 7 0 0 0-1-5 62 62 0 0 1 1-3h1v-2a3 3 0 0 0-1-3ZM350 270l-2-5-3-4-2-5-2-6 2 1a94 94 0 0 0 9 6h2l3 2a492 492 0 0 0 16 5l5 2 3 2 4 2 3 2 5 2 3 1 7 3 9 4 4 1a1026 1026 0 0 0 6 3l3 7a31 31 0 0 0-4 4 76 76 0 0 1-24 5 40 40 0 0 1-10-2 98 98 0 0 1-10-4 62 62 0 0 1-18-15l-5-6-4-6v1Zm68-18a388 388 0 0 1 0-18v-5a251 251 0 0 1 1-5l3-10a184 184 0 0 1 4-13l1 2a991 991 0 0 0 5 11l3 5 2 4 1 1a726 726 0 0 1 7 26v3a687 687 0 0 1-1 14v5l-1 2-1 2-2 4-4 6-1 1h-1c-2-2-5-4-9-5a139 139 0 0 1-5-16l-2-14Zm10 37 1 1-1-1Zm38 33a131 131 0 0 1-10-10l-1-3-5-7a22 22 0 0 1-1-1v-2l1-4a14 14 0 0 0-1-6l2-2 5-4 4-3 2-1 2-1 3-2 6-3 8-4 6-3 2-1 3-1 4-1 4-2 3-1 3-1 2-1 4-2 5-3 4-2 6-3 4-1a1413 1413 0 0 1 8-3l4-2 22-10 9-4 6-2 19-9 6-2h3a9 9 0 0 1 3 2 75 75 0 0 1 7 7l1 2 4 7 4 6 3 6-6 3-2 1-6 4-7 3-5 2-2 1a1818 1818 0 0 1-8 5l-1 1-2 2-7 6-4 3-2 2a4338 4338 0 0 1-5 4l-9 9-6 6-2 3-2 2-2 2-2 2h-1 1l-10 6-5 3-3 2-3 2-3 1-3 1a1512 1512 0 0 0-16 5h-12l-11-1h-4l-3-1-5-1-6-1Zm169-66 3 8 1 4 2 4 3 6 8 15 6 13 2 3 1 2 2 4 2 5 2 4v2l1 3a152 152 0 0 1 0 17v3l-1 3-1 4-3 7a228 228 0 0 1-12 22 76 76 0 0 1-8 10l-2 1h-5a113 113 0 0 1-29-8 106 106 0 0 0-23-6l-4-1-7-3-6-2-12-5-11-4a127 127 0 0 1-17-10l-7-4-5-3a233 233 0 0 0-17-8v-1a4 4 0 0 0-1 0l-6-3-10-7-7-4a622 622 0 0 1 23 2l7-1 7-1h5l2-1 4-1 3-1 5-2 6-3 3-1 3-2a70 70 0 0 0 8-6l3-4 3-3 2-2 6-5 8-9 4-3a134 134 0 0 0 7-6l4-4 5-3 3-2 2-1a99 99 0 0 0 9-6l4-3 4-3 4-2 3-2 4-1 6-2h1l3 7ZM521 23l25 1a225 225 0 0 1 16 1l5 1a85 85 0 0 1 22 4 167 167 0 0 1 10 4l5 2a78 78 0 0 1 11 6 48 48 0 0 1 13 14 609 609 0 0 1 6 10l3 5 5 9 5 10 5 10 4 8 5 9 6 13 3 7 3 7 3 8 3 7 5 9 7 13 7 13a53 53 0 0 1 4 13v11a56 56 0 0 1 0 5l-1 2v2h-1v1l-1 1h-1l-9 3a321 321 0 0 1-21 4l-5 1-13 3-8 1-3 1-3 1a16 16 0 0 0-3 1l-3-7a56 56 0 0 0-4-8l-1-2a80 80 0 0 0-11-14l-5-2h-5a42 42 0 0 0-10 2 110 110 0 0 0-14 6l-9 4-9 5-10 5-10 4-9 5-5 2-4 2-5 2-3 1-2 1-8 2-3 1h-1l-2 1a55 55 0 0 0-6 4 105 105 0 0 1-7 3l-7 4a140 140 0 0 0-11 5l-2 1-3 2-7 5-6 5-3 2-1 1-1-1-1-1 3-10a223 223 0 0 0 5-17v-2a1872 1872 0 0 0 5-11l2-6 7-14 1-4a5602 5602 0 0 1 5-7l1-2a89 89 0 0 0 8-9l6-7 2-3 2-3a1575 1575 0 0 1 9-8l5-4a173 173 0 0 1 7-6l1-1 3-2 8-4 7-4 5-2 3-1a161 161 0 0 1 20-8l10-3a157 157 0 0 0 19-9l4-2a42 42 0 0 0 6-5 22 22 0 0 0 4-5l1-2 1-2a39 39 0 0 0 3-17l-1-5v-4l-1-5-2-5a42 42 0 0 0-8-11l-4-4a155 155 0 0 0-9-7l-8-5-7-4a158 158 0 0 1-22-14 106 106 0 0 0-17-10l-6-3-6-3-1-1h5Zm-15 0h1l5 3 3 2 5 4 3 2a371 371 0 0 0 14 11 92 92 0 0 0 20 10l4 1a151 151 0 0 1 27 18l4 3 2 2a474 474 0 0 0 7 9 81 81 0 0 1 4 10 27 27 0 0 1 0 6v4l-1 3v1l-2 3h1l-7 11v-1l-2 4a18 18 0 0 1-5 4 74 74 0 0 1-15 7l-7 2a385 385 0 0 0-24 8l-9 4a167 167 0 0 0-6 2l-2 1-4 3-5 2-3 3-2 2-11 8-6 5-3 3-2 3c-3 3-6 5-8 9a80 80 0 0 0-10 13l-2 4-4 8-4 7-3 4-1 2-1 2-1 4-3 8a247 247 0 0 1-5 12 129 129 0 0 0-2-20l-2-4-1-3-1-2v-1l-2-3-1-3-1-4-2-4-1-4a2307 2307 0 0 1-3-6l-5-8 4-7 3-7 2-4 3-5 9-12 7-10 5-5 4-5 6-7a127 127 0 0 0 7-10l6-7 7-14 3-10 2-5 1-6a76 76 0 0 0 0-16l-1-7-1-10v-3a66 66 0 0 1-1-9l1-2a82 82 0 0 1 2-8v-1a79 79 0 0 1 1-2l1-1h1l2-1h5ZM305 44l12-4 11-4 11-4 13-4 7-2 7-2 14-5 15-4 7-2 8-2h-1 1l10-2h6a77 77 0 0 1 16-1h12a289 289 0 0 0 8 1h7l4 1 3 1a134 134 0 0 1 17 6l7 3-4 1-3 2-1 2-2 4a22 22 0 0 0 0 7 164 164 0 0 0 2 18v6l1 12a379 379 0 0 1-1 21l-1 4-1 1-2 4-1 2-3 4-6 10-4 6-5 5-7 9-5 6-6 9-9 12-6 8-5 8a117 117 0 0 0-6 12l-2-4a134 134 0 0 1-5-12l-1-3-4-7-4-6-5-8-3-4a80 80 0 0 1-3-7l-2-3-3-11a485 485 0 0 1-6-42l-1-8a79 79 0 0 0-3-13l-3-6a37 37 0 0 0-11-13 424 424 0 0 1-10-4l-6-2a92 92 0 0 0-9-2h-3a33 33 0 0 0-11 2l-12 3-11 3-6 1-6 2 10-5Zm-18 14v-1l16-4 11-3 5-2 5-1 3-1h9l5-1h3a45 45 0 0 1 9 1h2a24 24 0 0 1 5 3 60 60 0 0 1 8 6l5 4a65 65 0 0 1 4 5l1 1 1 2a31 31 0 0 1 2 6l1 1v5l2 20 2 18 1 5a46 46 0 0 0 1 4l2 4 1 4 1 4a382 382 0 0 0 7 12l4 10 3 5a535 535 0 0 0 8 16l5 8 4 7 1 1-1 2-3 7-2 6a72 72 0 0 0-2 13l-1 7v21l1 9 4 17a58 58 0 0 0-5-1l-1-1-10-4-9-4a99 99 0 0 0-13-6l-5-1-5-3-4-2-5-3-4-3-4-2-3-1-5-2-4-2-4-1a367 367 0 0 1-6-29l-2-15-2-16-2-16a215 215 0 0 0-4-17l-3-16-1-6-2-7a95 95 0 0 0-12-28l-4-7-4-6-3-5a601 601 0 0 1-4-6l-1-2-1-3-1-2v-4Zm-85 215a65 65 0 0 1-12-8l-6-4a36 36 0 0 1-10-14 30 30 0 0 1-1-6v-2 1a30 30 0 0 1 1-9 186 186 0 0 1 9-26l2-4 4-7 3-5 7-15 5-9 3-6 7-15v-1a645 645 0 0 1 13-29l2-5a150 150 0 0 1 12-29 35 35 0 0 1 7-8l2-1 7-4a286 286 0 0 1 20-8l6-1v2l1 1 1 3a97 97 0 0 0 8 17l4 6 4 5 1 3 2 2a80 80 0 0 1 5 13l4 12 2 5 1 3v3l3 11 2 10 1 11a441 441 0 0 0 3 22l2 18a174 174 0 0 0 6 32l1 4c-4-2-9-3-13-6l-13-6-20-7-11-4-6-3-12-2h-5a35 35 0 0 0-18 11l-4 5-2 3-4 5a225 225 0 0 0-14 20l-6 10-2 4-1 3-1-1Zm188 70-9 8a543 543 0 0 1-28 20l-4 3-3 2-3 1-3 2-6 3-5 1-8 4-3 1-2 1-3 1h-5l-4 1h-3l-10 2-3 1h-7a66 66 0 0 0-9 1l-6 1-4 1-4 1-4 1-7 1-5 1h-5a91 91 0 0 1-22-2 22 22 0 0 1-6-2l-2-2a19 19 0 0 1-5-6v-2a29 29 0 0 1-2-6 73 73 0 0 1 0-17l1-8v-17l1-9v-5l1-5a161 161 0 0 0-1-16v-10l1-4a51 51 0 0 1 2-11 72 72 0 0 1 5 3l6 4 10 5 6 3 3 2 7 4 7 5 13 9 16 10 14 10a192 192 0 0 0 14 8 142 142 0 0 0 21 8l5 2a66 66 0 0 0 27 2l2-1h5l10-3 4-2 11-5h-1Zm25-24-7 5a207 207 0 0 1-17 12l-5 4a56 56 0 0 1-18 7 218 218 0 0 1-17 2 87 87 0 0 1-16-3l-9-1-3-1-10-4a224 224 0 0 1-40-25l-13-9-15-8-9-6-4-3-4-3a94 94 0 0 0-8-5l-7-3a232 232 0 0 0-6-3v-1l2-4 3-5 3-4 11-17 6-8a121 121 0 0 1 12-13 25 25 0 0 1 7-3h6a111 111 0 0 1 28 6l10 3 8 4 6 2 5 2a95 95 0 0 1 22 10 85 85 0 0 0 8 19l4 7 3 4 2 4 9 9a130 130 0 0 0 21 15l8 3h4a72 72 0 0 0 10-1h2l3-1 6-2h1l-1 1-1 4c0 2 0 5 2 6l1 2-3 2Zm146 234 1-2 7-7 2-2 2-1a89 89 0 0 1 9-7v1a200 200 0 0 1-10 9 215 215 0 0 0-11 9Zm42 56-4 2a49 49 0 0 1-11 3l-11 1h-2a5 5 0 0 1-2-1 10 10 0 0 1-1-1 22 22 0 0 1-2-8l-1-4-1-15-1-4a284 284 0 0 1 20 12l7 5 7 6 4 4h-2Zm8-3h-1l-3-3-3-2-5-4-6-4-5-4-10-7-7-4-5-3v-7l5 2 6 2 5 2a76 76 0 0 1 12 7l5 4 5 3 4 3 3 3a71 71 0 0 1 3 4 25 25 0 0 1 2 2v2a4 4 0 0 1 0 1 5 5 0 0 1-1 0l-1 1-3 2Zm93-50-2 15-2 8-2 7-3 14-4 14-1 2-1 2-2 4-5 9a736 736 0 0 0-13 16h-1a23 23 0 0 1-10 2l-5-1a22 22 0 0 1-4-2l-2-1-9-10-9-9-10-11-4-5 3-2 2-4-1-5-1-3-2-2a75 75 0 0 0-12-14l-11-6a664 664 0 0 0-14-7l-6-2-2-1a35 35 0 0 0 7-3h4l17-2h38l10-2 10-2h-1 3l9-1 9-2 8-2a158 158 0 0 0 15-6h1a19 19 0 0 1 2 2 25 25 0 0 1 1 3 20 20 0 0 1 0 3 62 62 0 0 1 0 4Zm-111-2 2-1 8-3 7-4 4-1 5-2 8-2 16-3a122 122 0 0 1 20-2h1a167 167 0 0 1 20 2h5l2 1h2l1 1h1l-6 3-7 2-13 3-6 1a119 119 0 0 1-17 0h-16l-8 1-8 2-15 1-6 1Zm73-73a144 144 0 0 1 8 2l4 2 3 1a82 82 0 0 1 12 11l5 5 8 9 4 4 3 5a13 13 0 0 1 1 2v2a11 11 0 0 1 0 1 18 18 0 0 1-4 5l-3 3-2 1-1 1-3 2a29 29 0 0 0-5-3l-4-1-3-2h-2a351 351 0 0 1-11-1h-9l-17 1-16 2-17 5-17 6-4 2a156 156 0 0 0-11 6l-6 3a82 82 0 0 0-14 2h-1 1-1l11-12 2-2 2-2v1a156 156 0 0 1 10-7l5-5 6-4 3-3 2-1 2-1 8-4 7-3a204 204 0 0 1 47-17l1-2v-5c-1-3-3-7-6-10l2 1Zm-10 0 2-1v1a47 47 0 0 1 6 6 39 39 0 0 1 2 5v2h-1l-10 3-12 4-12 3-12 5-5 2-3 2-3 2a868 868 0 0 1 2-3l8-8a109 109 0 0 1 14-11l8-5a89 89 0 0 1 12-6l4-1Zm-98 53a126 126 0 0 0 8-39 80 80 0 0 0-2-21l-1-10a79 79 0 0 1 0-11l1-1 4-1 7-1 9-1a188 188 0 0 1 19-2 57 57 0 0 1 11 2 45 45 0 0 1 9 4l10 7 8 7 12 10-5 1a104 104 0 0 0-13 7 79 79 0 0 0-13 10l-13 11a258 258 0 0 0-13 11l-7 6a112 112 0 0 0-10 8l-3 4a108 108 0 0 1-9 7l-4 2a33 33 0 0 0-5 5l-1-2-2-2-1-3 4-8Zm-6 12v2l1 2h1-2l-3 2 3-6Zm-130 21v-4l5-14v-2l1-1 1-3 2-3a452 452 0 0 0 6-9l3-6 4-6 3-4a146 146 0 0 0 6-10l4-7 2-3 1-2 1-2 2-4 1-4 3-7a198 198 0 0 0 4-11l1-4 1 1v1l1 1 2 4 1 2v2a58 58 0 0 1 1 6 134 134 0 0 1-2 14v4a153 153 0 0 1-6 15l-1 2-1 2-3 3-2 3-5 6-5 7-6 6h1l-3 3a138 138 0 0 1-12 10 45 45 0 0 0-5 7 133 133 0 0 0-7 12l1-5Zm64-64v5l-1 4a58 58 0 0 1-4 12v-1l-5 8a92 92 0 0 1-16 17l-3 3-11 8-5 5-5 4-3 3-3 2a41 41 0 0 0-5 5l-4 4v-1l4-10 2-4 1-2a332 332 0 0 1 4-5l3-4 7-7a73 73 0 0 1 9-8l5-4a37 37 0 0 0 8-10l3-5 5-11 4-7a35 35 0 0 0 2-8l1-8 1-4v-4a71 71 0 0 0-2-13 36 36 0 0 1 4 8l2 6v3l-2 4 2 6 2 2v7Zm44 69h-3l-3-1-3-1-1-1a19 19 0 0 1-5-6 110 110 0 0 1-7-15 83 83 0 0 1-3-10v-6a127 127 0 0 0-2-11l-1-3a38 38 0 0 0-5-12l-2-3-2-2-4-5a12 12 0 0 1-3-5v-2a4 4 0 0 1 1-1v-1h1v-1h1a15 15 0 0 1 3-1h1l6-2a35 35 0 0 1 6 0 32 32 0 0 1 5 0 84 84 0 0 1 9 3l4 2 1 1 2 1 1 1 1 1 1 1 1 2 1 2 1 2 7 16 6 14 5 13-2 3-3 8-1 3h-1l-3 2-3 8-1 5h-3l-3 1Zm-21 274v2h-1l1-1v-1Zm206-123a126 126 0 0 1-8 23l-3 6a156 156 0 0 1-38 42l-2 2-2 2-17 10-9 6-4 3-4 1-4 2-4 1a265 265 0 0 0-15 7l-8 3-4 2-2 1h-2l-5 1-4 1-8 3-4 1a88 88 0 0 0-12 6l-8 5-14 10-4 3-5 3-4 3-2 2-2 1a50 50 0 0 0-7 8l-6 9 1-1 1-4a177 177 0 0 1 8-19l6-11a144 144 0 0 1 6-11l4-6a115 115 0 0 1 11-11l8-6 7-6a569 569 0 0 1 7-5l7-5 4-2 4-2 3-1 4-2 8-2a146 146 0 0 1 14-4l15-6 7-4a276 276 0 0 1 13-5l5-2 2-1 1-1a467 467 0 0 0 23-15l5-4 10-8a62 62 0 0 0 8-8 1604 1604 0 0 0 14-20l3-6 2-5 3-7c0 8-1 15-3 23Z"/><path d="m436 770 1-2 1-1 1-1 1-1 1-5 1-3-1-1-1-1a58 58 0 0 0-1-1h-1l-1-1h-4l-2-1h-2l-3-1h-5l-2-1a157 157 0 0 1-12 0h-9l-2 1-3 1h-4l-2 1h-1l-13 7-12 9-7 4-8 5-4 2-2 1-2 2a57 57 0 0 0-8 5l-4 4-4 3-7 5a65 65 0 0 0-10 11l-3 3-10 16-2 2a59 59 0 0 0-4 10l-5 13-1 4-2 5-1 5-1 3-1 2v5l-1 8-1 8-1 7 1 8v16l1 8v8a3 3 0 0 0 0 2 1 1 0 0 0 1 1l1-1 1-1v-1l1-1v-2l1-1 1-3 1-1v-1l2-6 2-3v-3l1-3 1-3 2-6 1-5 1-6v-3l1-3v-3a202 202 0 0 1 4-13l1-4 2-4a123 123 0 0 1 4-10v-2l1-2 4-7 4-6 3-4 1-2 2-1 1-2 2-1 3-3 6-7 3-2 2-2 4-4 4-5 4-4 2-2 2-2 5-3 5-4 6-3 5-3 6-3 3-1 3-2 12-6 5-2 6-2 11-4a804 804 0 0 1 19-6 198 198 0 0 0-6 7l-3 3a249 249 0 0 1-8 6l-3 2-3 2-8 3-13 8-7 5-8 4-7 3-6 5-10 7a74 74 0 0 0-13 11 96 96 0 0 0-8 11l-5 8-4 7-4 8-4 9-4 9a202 202 0 0 1-11 24l-4 7-4 8-1 2-2 3c-1 2-1 4-3 5a37 37 0 0 1-4 6 2 2 0 0 0 0 2 1 1 0 0 0 1 1 1 1 0 0 0 1 0l3-4 3-4 5-8 2-4a66 66 0 0 0 7-12l8-17 5-10 5-9 4-11a280 280 0 0 1 4-9l1-3a84 84 0 0 1 7-9l2-3 3-3a113 113 0 0 1 22-18l7-4a158 158 0 0 0 15-9l15-9a142 142 0 0 0 15-9 284 284 0 0 0 17-12Zm-1-14-3 1-3 1-16 6-4 2a72 72 0 0 0-12 5l-8 4-8 4-7 3-4 2-3 2-7 4a57 57 0 0 0-5 5l-6 6-3 2-4 3-3 3-3 3-5 6-1 2-2 1-3 3-2 1-1 2-3 3-3 3-3 4a87 87 0 0 0-6 10l-3 4-2 4a161 161 0 0 0-3 7l-1 4-2 4-1 4-1 4-1 3-1 2a32 32 0 0 0-1 4 164 164 0 0 1-1 8l-1 4v2l-1 4-1 5a107 107 0 0 1-2 8l-3 7-1 4-1 3a45 45 0 0 0-3 5v1l-1 1v1h-1v-9l1-9-1-9a223 223 0 0 1 0-13v-3a115 115 0 0 1 1-12v-3l1-3 1-1 1-5v-2l1-3 1-5v-2l1-3 1-2v-3l2-3 1-3 5-9 2-4v-2l1-2 1-2 1-1 6-7 2-4 2-2 1-1 9-9 5-5 2-2 1-1 2-2 3-2 2-1a258 258 0 0 0 12-7l5-3 3-2 2-1 5-3 5-5 4-3 4-3 2-1 2-1 7-4 3-1 3-1h1l2-1a1093 1093 0 0 1 13-2h5l3-1h4l2 1h4l3 1h6a108 108 0 0 1 4 1 29 29 0 0 1 2 0l-2 1ZM493 942Z"/></g><defs><clipPath id="a"><path fill="#fff" d="M0 0h902v1266H0z"/></clipPath></defs></svg>