<svg xmlns="http://www.w3.org/2000/svg" width="220" height="576" fill="none"><path fill="#322" fill-rule="evenodd" d="m202 56-6-3-7-4-8-2c-4 0-9 3-13 6v-2c-1-10-4-18-10-22-7-5-15-1-18 6-2 4-2 9-2 13l-2-2c-4-5-9-9-16-11-9-2-17 4-19 13-2 6-1 12 2 17l-3 1c-4 4-6 10-5 20 0 7 2 14 5 21 2 6 3 13 6 18h-4c-7 0-13-2-18-5-6-13-10-26-13-39l5-9 11-13 2-8c-1-3-2-6-5-9-2-1-3-2-4-1-2 0-4 1-5 3-5 9-7 28-6 32l1 5a32 32 0 0 0 12 40l16 25c2 2 8 9 13 12l-4 12c-6 20-6 40-3 60l-5-10c-9-19-16-39-23-59-10-24-20-50-40-68-8-8-17-13-25-20l-5-7s-2-3-4-3H1l-1 1 1 1 3 4 5 5c9 14 13 33 20 48 11 21 21 42 23 66 2 16 0 33 4 48 3 8 7 13 11 18s9 10 12 16c2 5 2 11 2 16 0 7 0 12 5 17 4 3 8 4 11 4 4-1 7-3 9-5l1-1 4 10c1 3 1 16 4 24l2 4 3 1c2-1 4-3 5-6 2-6 1-16 1-19-1-24-11-49-17-73 10 19 20 37 25 59 7 33 0 63-2 96-4-11-10-20-17-29a162 162 0 0 0-30-55c-3-1-5-1-7 1s-1 5 0 9c2 7 10 17 13 20l22 26 4 10c15 50 5 81-4 128l-11 11c-6 6-10 13-8 20 1 4 2 6 4 7 3 1 6 1 10-1l-3 31 1 1 1-1 3-32c9-5 20-17 22-22a181 181 0 0 0 2-120c2-35 9-66 1-101-5-24-17-44-28-64-5-22-5-44 1-66l5-11 2 1c2 2 5 2 7 1l3-5v-10l-2-1h-2l-3 2-6 10-12-12c-6-7-11-14-15-22a45 45 0 0 0 22 4l3 6c5 9 15 9 25 6l-2 7c1 13 15 20 26 20 17 0 32-13 41-26 4-5 7-13 7-20 0-5-1-9-4-12-2-2-4-3-7-3l5-4c5-6 9-17 9-28 0-6-2-11-6-15l1-1c2-1 3-2 3-6a139 139 0 0 0-12-35c-2-3-4-7-7-9-4-5-8-6-11-7-6 0-11 3-16 7l-15 12c-4 2-7 4-10 4-7 1-13-3-20-7s-14-7-21-4c-6 2-9 8-10 13-1 6 0 12 1 17l1 1 1-1c-1-5-2-11-1-16 1-6 3-10 9-12 6-3 13 0 19 4 7 3 14 8 21 7 4 0 7-2 11-4l15-12c4-4 9-7 14-7 4 0 7 2 11 6l6 9 6 14c3 6 6 13 6 20l-1 3-1 2h-2Zm-90 454-9 9c-5 6-9 12-7 19 0 3 2 4 3 5 3 2 6 1 9-1a338 338 0 0 1 4-32Zm22-105-1 3 2 43c1 15 0 29-7 42l-8 10-6 5a711 711 0 0 0-4 33c9-5 18-16 20-21a179 179 0 0 0 4-115Zm-17-31 1 5c16 49 6 80-3 126l3-3c4-4 7-7 8-10 7-13 8-27 8-41-1-15-3-30-2-43v-7c-4-10-9-19-15-27Zm-5-10c-5-13-11-26-19-37-1-2-4-8-8-11-2-1-4-3-5-1-2 2-2 4-1 7 3 8 11 17 13 20l20 22ZM13 77c7 14 11 30 18 44 11 21 21 43 23 67 1 16-1 32 4 48 2 7 6 12 10 17 5 5 9 10 12 16 3 5 3 11 3 17s0 11 5 15c3 3 6 4 9 4s6-2 8-4l1-2c-3-8-8-15-12-22-5-12-9-25-11-39-5-6-10-14-12-22l-3-21 1-4c1-1 2-2 3-1l3 1 3 5 4 26 3 16 8 10c8 11 17 21 19 33 2 6 0 13-3 18l4 11c1 3 1 17 3 24l2 4h2l2-2 2-5v-16c-1-25-12-51-18-75l-1-4-8-16c-9-18-16-38-23-58-9-24-20-50-39-68L13 77Zm73 165c2 11 5 23 10 34l12 21c2-5 4-10 3-15-3-13-11-23-19-33l-6-7Zm-4-8-1-12c-1-2-2-17-5-25l-2-5-2-1-1 1-1 3a64 64 0 0 0 12 39Zm112-128-9 5-19 7-4 3c-8 6-16 13-25 17l-2 8c1 12 14 18 24 18 16 0 31-12 40-25 4-5 6-12 6-19 0-4-1-8-4-11-1-1-4-3-7-3Zm-80 52 1 1h6l2-4v-8l-1-1v1l-2 1-6 10Zm81-103c-4-1-9 0-13 1l-15 6c-1 10-4 20-10 25l-3 2c3 4 5 9 4 12 0 5-3 8-6 11a84 84 0 0 1-43 15l2 5c6 9 16 8 25 5 3-7 9-11 17-15l12-6c7-5 14-9 22-11l6-1 7-5c4-5 8-16 8-26 0-6-2-12-6-15h-1l-1-1-5-2Zm-35 66-6 2c-7 4-12 7-16 12 8-3 15-9 22-14Zm-56-55-3 2c-3 3-5 9-5 18l5 21 7 18c9 0 19-2 27-5 5-2 12-5 16-9 3-3 5-6 5-10 1-3-1-7-4-11l-9 1c-4 0-7-2-7-5-1-3 0-6 3-8v-1l-8-5-2 1c-10 6-20 1-25-7ZM70 84a30 30 0 0 0 11 34c-5-11-8-22-11-34Zm120 23h-2c-6 1-11 4-16 7a271 271 0 0 0 18-7Zm-49-29-1 1-3 6c1 3 3 4 6 4 3 1 6 0 8-1l-10-10Zm24-15-14 9-9 5a67 67 0 0 1 11 11l3-2c5-5 8-14 9-23ZM71 78l4-7 10-13 2-7c0-3-2-5-4-7l-3-2c-2 0-3 2-4 3-4 8-6 27-5 31v2Zm68-26v4c-1 5-2 10-7 14l9 6 9-6 16-9v-5c-6 4-11 6-17 4-4-2-7-4-10-8Zm-10 19-3-2c-5-2-10-4-14-4l-6 1c4 7 13 10 22 5h1Zm9-20-3-4c-4-4-9-9-15-10-8-2-16 3-18 11-1 6 0 11 3 16l4-1c5 0 11 2 17 4l5 2c4-3 6-8 6-14l1-4ZM4 66Zm187-13-3-2-7-2c-4 0-9 3-13 6l-1 5 14-6 10-1Zm-25 1v-3c-1-9-4-17-9-21-6-4-13 0-15 6-2 4-2 9-3 14 3 3 6 6 11 8s10 0 15-3l1-1Z" clip-rule="evenodd"/></svg>