<svg xmlns="http://www.w3.org/2000/svg" width="185" height="68" fill="none"><path stroke="#fff" stroke-linecap="round" stroke-miterlimit="10" stroke-width="5" d="M3 65.1V28C3 18.6 8.4 7.8 23.5 7.8c13.2 0 19.2 9 19.2 17.9 0 10.2-6.7 16.6-15.6 16.6-4.3 0-14.5-3.8-14.5-14.4 0-9 7-11.6 10.6-11.6 7.7 0 9.4 6.4 9.4 10.7 0 3-2.6 5.6-5.5 5.6a5.2 5.2 0 0 1-5.2-5.1M91 26.8c1 9.3 7.7 19.5 22.8 17.7C127 43 132 33.4 131 24.3c-1.1-10-8.6-16-17.5-15-4.2.9-14 6.1-12.8 16.6 1 8.8 8.3 10.6 12 10.1 7.7-.9 8.6-7.6 8-11.7-.2-3-3.1-5.2-6-4.8A5.2 5.2 0 0 0 110 25M91 27.2C90 18 83.5 7.8 68.5 9.5c-13 1.5-18 11.1-17 20.3 1.2 9.9 8.6 16 17.5 15 4.1-1 13.8-6.2 12.6-16.6-1-8.9-8.2-10.6-11.8-10.2-7.7.9-8.6 7.7-8 11.8.3 2.9 3 5.1 6 4.8a5.2 5.2 0 0 0 4.5-5.7M169.5 41.7c10.2-4.4 6.5-37.8-9-30-15.5 7.8-11-3.8-14.7 0-7.1 7-8.5 18.5-4.3 25 4.3 6.5 20 6.5 22 0s0-10.2-3-12c-3-1.8-9-2-9 5.5"/></svg>